<svg xmlns="http://www.w3.org/2000/svg">

    <symbol id="icon--hamburger" viewBox="0 0 24 24">
        <title>Menu</title>
        <g id="group-hamburger" transform="translate(4.000000, 2.000000)">
            <rect id="Rectangle-top" x="0" y="0" width="16" height="2" />
            <rect id="Rectangle-middle" x="0" y="6" width="16" height="2" />
            <rect id="Rectangle-bottom" x="0" y="12" width="16" height="2" />
        </g>
    </symbol>

    <symbol id="icon--close" viewBox="0 0 24 24">
        <title>Close</title>
        <g id="group-close" transform="translate(6.000000, 3.000000)">
            <rect id="Rectangle-6-Copy" transform="translate(7.000000, 7.000000) rotate(45.000000) translate(-7.000000, -7.000000) " x="-1" y="6" width="16" height="2" />
            <rect id="Rectangle-6-Copy-3" transform="translate(7.000000, 7.000000) rotate(135.000000) translate(-7.000000, -7.000000) " x="-1" y="6" width="16" height="2" />
        </g>
    </symbol>

    <symbol id="icon--add-circle" viewBox="0 0 24 24">
        <title>Circle with add</title>
        <path d="M0 0h24v24H0z" fill="none"/>
        <path d="M13 7h-2v4H7v2h4v4h2v-4h4v-2h-4V7zm-1-5C6.48 2 2 6.48 2 12s4.48 10 10 10 10-4.48 10-10S17.52 2 12 2zm0 18c-4.41 0-8-3.59-8-8s3.59-8 8-8 8 3.59 8 8-3.59 8-8 8z"/>
    </symbol>

    <symbol id="icon--deadline" viewBox="0 0 24 24">
        <title>Reminder</title>
        <path d="M21 10.12h-6.78l2.74-2.82c-2.73-2.7-7.15-2.8-9.88-.1-2.73 2.71-2.73 7.08 0 9.79 2.73 2.71 7.15 2.71 9.88 0C18.32 15.65 19 14.08 19 12.1h2c0 1.98-.88 4.55-2.64 6.29-3.51 3.48-9.21 3.48-12.72 0-3.5-3.47-3.53-9.11-.02-12.58 3.51-3.47 9.14-3.47 12.65 0L21 3v7.12zM12.5 8v4.25l3.5 2.08-.72 1.21L11 13V8h1.5z"/>
    </symbol>

    <symbol id="icon--logo" data-name="Logo" viewBox="0 0 300 120">
        <title>laduradura_logo_white</title>
        <g fill="none" fill-rule="evenodd">
            <g fill="#00464D" transform="translate(87.871 64.71)">
                <path d="M11.9068691,43.4908465 L22.3552262,43.4908465 C24.0468734,43.4908465 25.6887416,43.2172018 27.2808802,42.6699042 C28.8730188,42.1226066 30.2909959,41.2146037 31.5348542,39.9458682 C32.7787124,38.6771328 33.7737841,37.0228262 34.520099,34.9828986 C35.266414,32.9429711 35.6395659,30.4552919 35.6395659,27.5197864 C35.6395659,24.8330526 35.3783595,22.4075654 34.8559391,20.2432521 C34.3335186,18.0789387 33.4752693,16.2256177 32.2811654,14.6832335 C31.0870614,13.1408492 29.5073852,11.9592016 27.5420891,11.1382552 C25.5767931,10.3173087 23.1513059,9.90684167 20.2655547,9.90684167 L11.9068691,9.90684167 L11.9068691,43.4908465 Z M0.189782941,0.0555335757 L23.1761685,0.0555335757 C26.6092173,0.0555335757 29.805885,0.602822997 32.7662677,1.69741826 C35.7266503,2.79201352 38.2889599,4.43388178 40.4532732,6.62307231 C42.6175866,8.81226283 44.3092084,11.5487099 45.5281895,14.8324957 C46.7471706,18.1162815 47.356652,21.9721842 47.356652,26.4003196 C47.356652,30.2811574 46.8591162,33.8634154 45.8640296,37.1472012 C44.868943,40.430987 43.3638971,43.2669412 41.3488467,45.6551491 C39.3337963,48.0433569 36.8212403,49.9215547 33.8111034,51.2897988 C30.8009664,52.6580429 27.2560236,53.3421546 23.1761685,53.3421546 L0.189782941,53.3421546 L0.189782941,0.0555335757 Z" transform="matrix(1 0 0 -1 0 53.398)"/>
                <path d="M100.717904,33.1917517 C100.717904,40.4061296 98.702884,45.7670782 94.6727833,49.2747585 C90.6426826,52.7824388 85.0702812,54.5362526 77.955412,54.5362526 C70.7410341,54.5362526 65.1561944,52.7948772 61.2007251,49.312074 C57.2452559,45.8292709 55.2675509,40.4558839 55.2675509,33.1917517 L55.2675509,0.0555335757 L66.9846371,0.0555335757 L66.9846371,33.1917517 C66.9846371,34.6346273 67.109021,36.0526044 67.3577927,37.4457257 C67.6065643,38.8388469 68.128977,40.0702481 68.9250462,41.1399662 C69.7211155,42.2096843 70.8281328,43.080372 72.2461312,43.7520555 C73.6641296,44.4237389 75.5672041,44.7595756 77.955412,44.7595756 C82.1347757,44.7595756 85.0204836,43.8266959 86.6126221,41.9609085 C88.2047607,40.0951212 89.000818,37.1720981 89.000818,33.1917517 L89.000818,0.0555335757 L100.717904,0.0555335757 L100.717904,33.1917517 Z" transform="matrix(1 0 0 -1 0 54.592)"/>
                <path d="M122.510192,24.161386 L135.346745,24.161386 C138.033479,24.161386 140.048499,23.564343 141.391866,22.370239 C142.735233,21.1761351 143.406906,19.2357453 143.406906,16.5490115 C143.406906,13.9617864 142.735233,12.0835886 141.391866,10.9143618 C140.048499,9.74513506 138.033479,9.16053045 135.346745,9.16053045 L122.510192,9.16053045 L122.510192,24.161386 Z M110.793106,0.0555335757 L139.526088,0.0555335757 C141.914295,0.0555335757 144.066138,0.44112385 145.98168,1.21231597 C147.897221,1.98350808 149.53909,3.04077174 150.907334,4.38413865 C152.275578,5.72750556 153.320403,7.28230505 154.041841,9.04858377 C154.763279,10.8148625 155.123992,12.7179371 155.123992,14.7578646 C155.123992,17.8923874 154.464757,20.6039577 153.146267,22.8926569 C151.827778,25.1813561 149.675935,26.9227315 146.690675,28.1168354 L146.690675,28.2660977 C148.133551,28.6641323 149.327637,29.2736137 150.272969,30.0945602 C151.218301,30.9155066 151.989482,31.8857015 152.586534,33.0051739 C153.183586,34.1246463 153.61893,35.3560475 153.892579,36.6994144 C154.166227,38.0427814 154.352803,39.3861281 154.452312,40.729495 C154.502066,41.5753186 154.55182,42.5703903 154.601574,43.7147399 C154.651329,44.8590895 154.738397,46.0282987 154.862783,47.2224026 C154.987169,48.4165066 155.186183,49.5484006 155.459832,50.6181187 C155.733481,51.6878368 156.143948,52.5958397 156.691246,53.3421546 L144.974159,53.3421546 C144.327353,51.6505074 143.929325,49.6354873 143.780062,47.2970338 C143.630799,44.9585802 143.406907,42.719669 143.108381,40.5802328 C142.710347,37.7939903 141.864536,35.7540934 140.570923,34.4604808 C139.277311,33.1668682 137.162783,32.5200716 134.227278,32.5200716 L122.510192,32.5200716 L122.510192,53.3421546 L110.793106,53.3421546 L110.793106,0.0555335757 Z" transform="matrix(1 0 0 -1 0 53.398)"/>
                <path d="M185.411902,53.1241579 L158.939585,0.179522232 L185.411902,0.179522232 L211.98397,0.179522232 L185.510964,53.125533 L185.510964,53.322282 L185.461777,53.2239075 L185.411902,53.3236571 L185.411902,53.1241579 Z M185.327134,30.7622116 L195.253995,9.24754923 L175.767934,9.24754923 L185.327134,30.7622116 Z"/>
            </g>
            <g fill="#00AFBF" transform="translate(87.871 .735)">
                <path d="M11.9068691 43.4908465L22.3552262 43.4908465C24.0468734 43.4908465 25.6887416 43.2172018 27.2808802 42.6699042 28.8730188 42.1226066 30.2909959 41.2146037 31.5348542 39.9458682 32.7787124 38.6771328 33.7737841 37.0228262 34.520099 34.9828986 35.266414 32.9429711 35.6395659 30.4552919 35.6395659 27.5197864 35.6395659 24.8330526 35.3783595 22.4075654 34.8559391 20.2432521 34.3335186 18.0789387 33.4752693 16.2256177 32.2811654 14.6832335 31.0870614 13.1408492 29.5073852 11.9592016 27.5420891 11.1382552 25.5767931 10.3173087 23.1513059 9.90684167 20.2655547 9.90684167L11.9068691 9.90684167 11.9068691 43.4908465zM.189782941.0555335757L23.1761685.0555335757C26.6092173.0555335757 29.805885.602822997 32.7662677 1.69741826 35.7266503 2.79201352 38.2889599 4.43388178 40.4532732 6.62307231 42.6175866 8.81226283 44.3092084 11.5487099 45.5281895 14.8324957 46.7471706 18.1162815 47.356652 21.9721842 47.356652 26.4003196 47.356652 30.2811574 46.8591162 33.8634154 45.8640296 37.1472012 44.868943 40.430987 43.3638971 43.2669412 41.3488467 45.6551491 39.3337963 48.0433569 36.8212403 49.9215547 33.8111034 51.2897988 30.8009664 52.6580429 27.2560236 53.3421546 23.1761685 53.3421546L.189782941 53.3421546.189782941.0555335757zM100.717904 33.1917517C100.717904 40.4061296 98.702884 45.7670782 94.6727833 49.2747585 90.6426826 52.7824388 85.0702812 54.5362526 77.955412 54.5362526 70.7410341 54.5362526 65.1561944 52.7948772 61.2007251 49.312074 57.2452559 45.8292709 55.2675509 40.4558839 55.2675509 33.1917517L55.2675509.0555335757 66.9846371.0555335757 66.9846371 33.1917517C66.9846371 34.6346273 67.109021 36.0526044 67.3577927 37.4457257 67.6065643 38.8388469 68.128977 40.0702481 68.9250462 41.1399662 69.7211155 42.2096843 70.8281328 43.080372 72.2461312 43.7520555 73.6641296 44.4237389 75.5672041 44.7595756 77.955412 44.7595756 82.1347757 44.7595756 85.0204836 43.8266959 86.6126221 41.9609085 88.2047607 40.0951212 89.000818 37.1720981 89.000818 33.1917517L89.000818.0555335757 100.717904.0555335757 100.717904 33.1917517zM122.510192 24.161386L135.346745 24.161386C138.033479 24.161386 140.048499 23.564343 141.391866 22.370239 142.735233 21.1761351 143.406906 19.2357453 143.406906 16.5490115 143.406906 13.9617864 142.735233 12.0835886 141.391866 10.9143618 140.048499 9.74513506 138.033479 9.16053045 135.346745 9.16053045L122.510192 9.16053045 122.510192 24.161386zM110.793106.0555335757L139.526088.0555335757C141.914295.0555335757 144.066138.44112385 145.98168 1.21231597 147.897221 1.98350808 149.53909 3.04077174 150.907334 4.38413865 152.275578 5.72750556 153.320403 7.28230505 154.041841 9.04858377 154.763279 10.8148625 155.123992 12.7179371 155.123992 14.7578646 155.123992 17.8923874 154.464757 20.6039577 153.146267 22.8926569 151.827778 25.1813561 149.675935 26.9227315 146.690675 28.1168354L146.690675 28.2660977C148.133551 28.6641323 149.327637 29.2736137 150.272969 30.0945602 151.218301 30.9155066 151.989482 31.8857015 152.586534 33.0051739 153.183586 34.1246463 153.61893 35.3560475 153.892579 36.6994144 154.166227 38.0427814 154.352803 39.3861281 154.452312 40.729495 154.502066 41.5753186 154.55182 42.5703903 154.601574 43.7147399 154.651329 44.8590895 154.738397 46.0282987 154.862783 47.2224026 154.987169 48.4165066 155.186183 49.5484006 155.459832 50.6181187 155.733481 51.6878368 156.143948 52.5958397 156.691246 53.3421546L144.974159 53.3421546C144.327353 51.6505074 143.929325 49.6354873 143.780062 47.2970338 143.630799 44.9585802 143.406907 42.719669 143.108381 40.5802328 142.710347 37.7939903 141.864536 35.7540934 140.570923 34.4604808 139.277311 33.1668682 137.162783 32.5200716 134.227278 32.5200716L122.510192 32.5200716 122.510192 53.3421546 110.793106 53.3421546 110.793106.0555335757zM185.510964.377646247L211.98397 53.3236571 185.411902 53.3236571 158.939585 53.322282 185.411902.377646247 185.411902.179522232 185.461433.27858424 185.510964.179522232 185.510964.377646247zM185.327134 22.8510259L175.400272 44.3656883 194.886334 44.3656883 185.327134 22.8510259z"/>
            </g>
            <path fill="#00AFBF" d="M0.117440761,0.354497829 L11.8345269,0.354497829 L11.8345269,43.7898108 L37.8061573,43.7898108 L37.8061573,53.6411189 L0.117440761,53.6411189 L0.117440761,0.354497829 Z M42.8064425,26.9231772 C42.9557055,24.4354607 43.5776253,22.370687 44.6722206,20.7287941 C45.7668158,19.0869012 47.1599162,17.7684313 48.8515634,16.7733447 C50.5432106,15.7782581 52.4462852,15.0692695 54.5608442,14.6463577 C56.6754032,14.2234459 58.8023689,14.0119931 60.9418051,14.0119931 C62.882224,14.0119931 64.8474906,14.1488155 66.8376638,14.4224643 C68.827837,14.6961131 70.6438428,15.2309642 72.2857357,16.0270334 C73.9276286,16.8231027 75.2709753,17.93012 76.3158162,19.3481184 C77.3606572,20.7661168 77.8830698,22.6443146 77.8830698,24.9827681 L77.8830698,45.0585399 C77.8830698,46.7999414 77.982577,48.4666865 78.1815943,50.058825 C78.3806116,51.6509636 78.7288867,52.8450496 79.22643,53.6411189 L68.4795484,53.6411189 C68.2805311,53.0440669 68.118832,52.4345855 67.9944462,51.8126564 C67.8700603,51.1907273 67.7829916,50.5563691 67.7332372,49.9095628 C66.04159,51.6509643 64.0514467,52.8699271 61.7627475,53.5664878 C59.4740483,54.2630484 57.1356299,54.6113235 54.747422,54.6113235 C52.9065118,54.6113235 51.1900132,54.3874323 49.5978746,53.9396434 C48.005736,53.4918544 46.6126357,52.7953042 45.4185318,51.849972 C44.2244278,50.9046397 43.2915482,49.7105537 42.6198647,48.2676781 C41.9481812,46.8248025 41.6123446,45.1083039 41.6123446,43.1181307 C41.6123446,40.9289402 41.9979348,39.1253728 42.7691269,37.7073744 C43.5403191,36.2893759 44.5353907,35.1574819 45.7543718,34.3116583 C46.9733529,33.4658347 48.3664533,32.8314765 49.9337146,32.4085647 C51.500976,31.9856529 53.0806523,31.6498162 54.6727909,31.4010446 C56.2649295,31.1522729 57.8321673,30.9532586 59.3745516,30.8039956 C60.9169358,30.6547326 62.2851594,30.4308415 63.4792633,30.1323155 C64.6733672,29.8337895 65.6186853,29.3984456 66.3152459,28.8262708 C67.0118065,28.254096 67.3352048,27.4207235 67.2854505,26.3261283 C67.2854505,25.1817787 67.0988746,24.2737758 66.7257171,23.6020923 C66.3525596,22.9304089 65.8550238,22.4079962 65.2330946,22.0348387 C64.6111655,21.6616813 63.8897386,21.4129134 63.0687921,21.2885275 C62.2478457,21.1641417 61.3647195,21.1019497 60.4193873,21.1019497 C58.3297054,21.1019497 56.6878372,21.549732 55.4937332,22.4453099 C54.2996293,23.3408879 53.6030791,24.8334954 53.4040618,26.9231772 L42.8064425,26.9231772 Z M67.2854505,34.759445 C66.8376615,35.1574797 66.2779337,35.4684396 65.6062503,35.6923341 C64.9345668,35.9162285 64.2131398,36.1028045 63.4419477,36.2520675 C62.6707556,36.4013305 61.8622599,36.5257144 61.0164363,36.6252231 C60.1706126,36.7247317 59.3248017,36.8491157 58.4789781,36.9983787 C57.6829088,37.1476417 56.8992899,37.346656 56.1280978,37.5954277 C55.3569057,37.8441993 54.6852323,38.180036 54.1130575,38.6029478 C53.5408827,39.0258596 53.080662,39.5607106 52.7323817,40.2075169 C52.3841014,40.8543232 52.2099639,41.6752574 52.2099639,42.670344 C52.2099639,43.6156762 52.3841014,44.4117336 52.7323817,45.0585399 C53.080662,45.7053462 53.5533211,46.2153204 54.150373,46.5884779 C54.747425,46.9616353 55.4439752,47.2228417 56.2400445,47.3721046 C57.0361137,47.5213676 57.8570479,47.595998 58.7028715,47.595998 C60.7925533,47.595998 62.4095448,47.2477229 63.5538944,46.5511623 C64.698244,45.8546017 65.5440549,45.0212292 66.0913525,44.0510197 C66.6386502,43.0808103 66.9744869,42.098177 67.0988727,41.1030904 C67.2232585,40.1080038 67.2854505,39.3119465 67.2854505,38.7148945 L67.2854505,34.759445 Z" transform="translate(0 .231)"/>
        </g>
    </symbol>
</svg>
